<svg xmlns="http://www.w3.org/2000/svg" xmlns:xlink="http://www.w3.org/1999/xlink" width="5000" zoomAndPan="magnify" viewBox="0 0 3750 3749.999967" height="5000" preserveAspectRatio="xMidYMid meet" version="1.0"><defs><clipPath id="6b06121628"><path d="M 1644.816406 0 L 2099.582031 0 L 2099.582031 454.765625 L 1644.816406 454.765625 Z M 1644.816406 0 " clip-rule="nonzero"/></clipPath><clipPath id="77870022fd"><path d="M 1872.199219 0 C 1746.621094 0 1644.816406 101.800781 1644.816406 227.382812 C 1644.816406 352.960938 1746.621094 454.765625 1872.199219 454.765625 C 1997.777344 454.765625 2099.582031 352.960938 2099.582031 227.382812 C 2099.582031 101.800781 1997.777344 0 1872.199219 0 Z M 1872.199219 0 " clip-rule="nonzero"/></clipPath><clipPath id="8e1469ce16"><path d="M 1644.816406 950.769531 L 2099.582031 950.769531 L 2099.582031 1405.53125 L 1644.816406 1405.53125 Z M 1644.816406 950.769531 " clip-rule="nonzero"/></clipPath><clipPath id="2f1fa22569"><path d="M 1872.199219 950.769531 C 1746.621094 950.769531 1644.816406 1052.570312 1644.816406 1178.152344 C 1644.816406 1303.730469 1746.621094 1405.53125 1872.199219 1405.53125 C 1997.777344 1405.53125 2099.582031 1303.730469 2099.582031 1178.152344 C 2099.582031 1052.570312 1997.777344 950.769531 1872.199219 950.769531 Z M 1872.199219 950.769531 " clip-rule="nonzero"/></clipPath><clipPath id="877b1f5e91"><path d="M 1644.816406 1902.9375 L 2099.582031 1902.9375 L 2099.582031 2357.703125 L 1644.816406 2357.703125 Z M 1644.816406 1902.9375 " clip-rule="nonzero"/></clipPath><clipPath id="470256e3f9"><path d="M 1872.199219 1902.9375 C 1746.621094 1902.9375 1644.816406 2004.738281 1644.816406 2130.320312 C 1644.816406 2255.898438 1746.621094 2357.703125 1872.199219 2357.703125 C 1997.777344 2357.703125 2099.582031 2255.898438 2099.582031 2130.320312 C 2099.582031 2004.738281 1997.777344 1902.9375 1872.199219 1902.9375 Z M 1872.199219 1902.9375 " clip-rule="nonzero"/></clipPath><clipPath id="9c28d28ec0"><path d="M 0 952.167969 L 454.765625 952.167969 L 454.765625 1406.933594 L 0 1406.933594 Z M 0 952.167969 " clip-rule="nonzero"/></clipPath><clipPath id="868f1107f7"><path d="M 227.382812 952.167969 C 101.800781 952.167969 0 1053.972656 0 1179.550781 C 0 1305.132812 101.800781 1406.933594 227.382812 1406.933594 C 352.960938 1406.933594 454.765625 1305.132812 454.765625 1179.550781 C 454.765625 1053.972656 352.960938 952.167969 227.382812 952.167969 Z M 227.382812 952.167969 " clip-rule="nonzero"/></clipPath><clipPath id="3f7b915d16"><path d="M 811.160156 1426.152344 L 1265.925781 1426.152344 L 1265.925781 1880.917969 L 811.160156 1880.917969 Z M 811.160156 1426.152344 " clip-rule="nonzero"/></clipPath><clipPath id="5fd4fd8a82"><path d="M 1038.542969 1426.152344 C 912.960938 1426.152344 811.160156 1527.957031 811.160156 1653.535156 C 811.160156 1779.113281 912.960938 1880.917969 1038.542969 1880.917969 C 1164.121094 1880.917969 1265.925781 1779.113281 1265.925781 1653.535156 C 1265.925781 1527.957031 1164.121094 1426.152344 1038.542969 1426.152344 Z M 1038.542969 1426.152344 " clip-rule="nonzero"/></clipPath><clipPath id="644884f519"><path d="M 811.160156 475.382812 L 1265.925781 475.382812 L 1265.925781 930.148438 L 811.160156 930.148438 Z M 811.160156 475.382812 " clip-rule="nonzero"/></clipPath><clipPath id="baf1946d52"><path d="M 1038.542969 475.382812 C 912.960938 475.382812 811.160156 577.1875 811.160156 702.765625 C 811.160156 828.347656 912.960938 930.148438 1038.542969 930.148438 C 1164.121094 930.148438 1265.925781 828.347656 1265.925781 702.765625 C 1265.925781 577.1875 1164.121094 475.382812 1038.542969 475.382812 Z M 1038.542969 475.382812 " clip-rule="nonzero"/></clipPath><clipPath id="618173fbbc"><path d="M 2484.074219 1424.753906 L 2938.839844 1424.753906 L 2938.839844 1879.515625 L 2484.074219 1879.515625 Z M 2484.074219 1424.753906 " clip-rule="nonzero"/></clipPath><clipPath id="c5d8bfa65d"><path d="M 2711.457031 1424.753906 C 2585.878906 1424.753906 2484.074219 1526.554688 2484.074219 1652.132812 C 2484.074219 1777.714844 2585.878906 1879.515625 2711.457031 1879.515625 C 2837.039062 1879.515625 2938.839844 1777.714844 2938.839844 1652.132812 C 2938.839844 1526.554688 2837.039062 1424.753906 2711.457031 1424.753906 Z M 2711.457031 1424.753906 " clip-rule="nonzero"/></clipPath><clipPath id="b2f9f708ba"><path d="M 2484.074219 473.984375 L 2938.839844 473.984375 L 2938.839844 928.75 L 2484.074219 928.75 Z M 2484.074219 473.984375 " clip-rule="nonzero"/></clipPath><clipPath id="9b4a55d833"><path d="M 2711.457031 473.984375 C 2585.878906 473.984375 2484.074219 575.785156 2484.074219 701.367188 C 2484.074219 826.945312 2585.878906 928.75 2711.457031 928.75 C 2837.039062 928.75 2938.839844 826.945312 2938.839844 701.367188 C 2938.839844 575.785156 2837.039062 473.984375 2711.457031 473.984375 Z M 2711.457031 473.984375 " clip-rule="nonzero"/></clipPath><clipPath id="a9fae7d3f7"><path d="M 3295.234375 953.570312 L 3750 953.570312 L 3750 1408.335938 L 3295.234375 1408.335938 Z M 3295.234375 953.570312 " clip-rule="nonzero"/></clipPath><clipPath id="830178cce5"><path d="M 3522.617188 953.570312 C 3397.039062 953.570312 3295.234375 1055.371094 3295.234375 1180.953125 C 3295.234375 1306.53125 3397.039062 1408.335938 3522.617188 1408.335938 C 3648.195312 1408.335938 3750 1306.53125 3750 1180.953125 C 3750 1055.371094 3648.195312 953.570312 3522.617188 953.570312 Z M 3522.617188 953.570312 " clip-rule="nonzero"/></clipPath></defs><g clip-path="url(#6b06121628)"><g clip-path="url(#77870022fd)"><path fill="#ffffff" d="M 1644.816406 0 L 2099.582031 0 L 2099.582031 454.765625 L 1644.816406 454.765625 Z M 1644.816406 0 " fill-opacity="1" fill-rule="nonzero"/></g></g><g clip-path="url(#8e1469ce16)"><g clip-path="url(#2f1fa22569)"><path fill="#ffffff" d="M 1644.816406 950.769531 L 2099.582031 950.769531 L 2099.582031 1405.53125 L 1644.816406 1405.53125 Z M 1644.816406 950.769531 " fill-opacity="1" fill-rule="nonzero"/></g></g><g clip-path="url(#877b1f5e91)"><g clip-path="url(#470256e3f9)"><path fill="#ffffff" d="M 1644.816406 1902.9375 L 2099.582031 1902.9375 L 2099.582031 2357.703125 L 1644.816406 2357.703125 Z M 1644.816406 1902.9375 " fill-opacity="1" fill-rule="nonzero"/></g></g><g clip-path="url(#9c28d28ec0)"><g clip-path="url(#868f1107f7)"><path fill="#ffffff" d="M 0 952.167969 L 454.765625 952.167969 L 454.765625 1406.933594 L 0 1406.933594 Z M 0 952.167969 " fill-opacity="1" fill-rule="nonzero"/></g></g><g clip-path="url(#3f7b915d16)"><g clip-path="url(#5fd4fd8a82)"><path fill="#ffffff" d="M 811.160156 1426.152344 L 1265.925781 1426.152344 L 1265.925781 1880.917969 L 811.160156 1880.917969 Z M 811.160156 1426.152344 " fill-opacity="1" fill-rule="nonzero"/></g></g><g clip-path="url(#644884f519)"><g clip-path="url(#baf1946d52)"><path fill="#ffffff" d="M 811.160156 475.382812 L 1265.925781 475.382812 L 1265.925781 930.148438 L 811.160156 930.148438 Z M 811.160156 475.382812 " fill-opacity="1" fill-rule="nonzero"/></g></g><g clip-path="url(#618173fbbc)"><g clip-path="url(#c5d8bfa65d)"><path fill="#ffffff" d="M 2484.074219 1424.753906 L 2938.839844 1424.753906 L 2938.839844 1879.515625 L 2484.074219 1879.515625 Z M 2484.074219 1424.753906 " fill-opacity="1" fill-rule="nonzero"/></g></g><g clip-path="url(#b2f9f708ba)"><g clip-path="url(#9b4a55d833)"><path fill="#ffffff" d="M 2484.074219 473.984375 L 2938.839844 473.984375 L 2938.839844 928.75 L 2484.074219 928.75 Z M 2484.074219 473.984375 " fill-opacity="1" fill-rule="nonzero"/></g></g><g clip-path="url(#a9fae7d3f7)"><g clip-path="url(#830178cce5)"><path fill="#ffffff" d="M 3295.234375 953.570312 L 3750 953.570312 L 3750 1408.335938 L 3295.234375 1408.335938 Z M 3295.234375 953.570312 " fill-opacity="1" fill-rule="nonzero"/></g></g></svg>